<svg xmlns="http://www.w3.org/2000/svg" xmlns:xlink="http://www.w3.org/1999/xlink" viewBox="0 0 126.14 88.04"><defs><style>.cls-1{fill:url(#radial-gradient);}.cls-2{fill:url(#linear-gradient);}.cls-3{fill:#ffe7d4;}.cls-4{fill:#bdb9c1;}.cls-5{fill:url(#linear-gradient-2);}.cls-6{fill:url(#linear-gradient-3);}.cls-7{fill:url(#radial-gradient-2);}.cls-8{fill:url(#linear-gradient-4);}.cls-9{fill:url(#radial-gradient-3);}.cls-10{fill:url(#radial-gradient-4);}</style><radialGradient id="radial-gradient" cx="925.55" cy="850.7" r="40.19" gradientTransform="translate(-1189.53 -1107.29) scale(1.35)" gradientUnits="userSpaceOnUse"><stop offset="0" stop-color="#faae58"/><stop offset="0.46" stop-color="#f8c16a"/><stop offset="1" stop-color="#f6d37a"/></radialGradient><linearGradient id="linear-gradient" x1="-85.74" y1="1128.27" x2="-68.03" y2="1227.45" gradientTransform="translate(126.03 -951.88) scale(0.84)" gradientUnits="userSpaceOnUse"><stop offset="0" stop-color="#fcb837"/><stop offset="0.41" stop-color="#ffd334"/><stop offset="0.74" stop-color="#f69e53"/></linearGradient><linearGradient id="linear-gradient-2" x1="189.4" y1="-213.6" x2="189.4" y2="-114.47" gradientTransform="translate(232.35 197.17) rotate(-90) scale(0.83 1.04)" gradientUnits="userSpaceOnUse"><stop offset="0" stop-color="#fff"/><stop offset="0.48" stop-color="#fdfdfd"/><stop offset="0.71" stop-color="#f5f6f6"/><stop offset="0.89" stop-color="#e9e9ea"/><stop offset="1" stop-color="#dbdcdd"/></linearGradient><linearGradient id="linear-gradient-3" x1="-245.44" y1="525.6" x2="-236.74" y2="516.9" gradientTransform="translate(574.68 225.07) rotate(90) scale(0.83 1.04)" gradientUnits="userSpaceOnUse"><stop offset="0" stop-color="#fff"/><stop offset="0.35" stop-color="#f2f3f3"/><stop offset="1" stop-color="#d0d2d3"/><stop offset="1" stop-color="#d0d2d3"/></linearGradient><radialGradient id="radial-gradient-2" cx="129.46" cy="-279.6" r="11.37" gradientTransform="translate(433.16 172.23) rotate(-90) scale(1.16 1.46)" gradientUnits="userSpaceOnUse"><stop offset="0" stop-color="#fff"/><stop offset="0.49" stop-color="#fdfdfd"/><stop offset="0.66" stop-color="#f6f7f7"/><stop offset="0.79" stop-color="#ebebec"/><stop offset="0.89" stop-color="#dadbdc"/><stop offset="0.97" stop-color="#c4c6c7"/><stop offset="1" stop-color="#bbbdbf"/></radialGradient><linearGradient id="linear-gradient-4" x1="169.31" y1="-94.84" x2="211.52" y2="-137.06" gradientTransform="translate(232.35 197.17) rotate(-90) scale(0.83 1.04)" gradientUnits="userSpaceOnUse"><stop offset="0" stop-color="#d0d2d3"/><stop offset="0.47" stop-color="#fff"/><stop offset="0.66" stop-color="#f2f3f3"/><stop offset="1" stop-color="#d0d2d3"/><stop offset="1" stop-color="#d0d2d3"/></linearGradient><radialGradient id="radial-gradient-3" cx="933.56" cy="897.46" r="83.07" xlink:href="#radial-gradient"/><radialGradient id="radial-gradient-4" cx="962" cy="912.87" r="87.32" gradientTransform="translate(-1189.53 -1107.29) scale(1.35)" gradientUnits="userSpaceOnUse"><stop offset="0" stop-color="#faae58"/><stop offset="0.33" stop-color="#fab25c"/><stop offset="0.66" stop-color="#f8be67"/><stop offset="0.99" stop-color="#f6d279"/><stop offset="1" stop-color="#f6d37a"/></radialGradient></defs><g id="Layer_2" data-name="Layer 2"><g id="Layer_1-2" data-name="Layer 1"><rect class="cls-1" width="126.14" height="88.04" rx="14.62"/><rect class="cls-2" x="1.33" y="1.33" width="123.48" height="85.38" rx="13.29"/><path class="cls-3" d="M111.52,2.08H14.62A13.33,13.33,0,0,0,1.33,15.37v2.34A13.33,13.33,0,0,1,14.62,4.42h96.9a13.33,13.33,0,0,1,13.29,13.29V15.37A13.33,13.33,0,0,0,111.52,2.08Z"/><path class="cls-4" d="M6.89,73a2.62,2.62,0,0,0,2.86,2.26H110.41A2.62,2.62,0,0,0,113.26,73V9.33a2.62,2.62,0,0,0-2.85-2.27h-69a9.23,9.23,0,0,0-4.88,1.59L8.91,30.54a5.71,5.71,0,0,0-2,3.86Z"/><path class="cls-5" d="M8.8,71.13a2.61,2.61,0,0,0,2.85,2.26h97.82a2.61,2.61,0,0,0,2.85-2.26V10.07c0-1.24-1.29-2.25-2.85-2.25H41.9A9.11,9.11,0,0,0,37,9.41L10.81,30.16A5.74,5.74,0,0,0,8.8,34Z"/><path class="cls-6" d="M16.37,30.56H30.64c3,0,5.44-1.94,5.44-4.31V14.51Z"/><path class="cls-7" d="M34,31.44l-23.47,1h0l26.81,1.6a2.62,2.62,0,0,0,2.85-2.26V11.26h0L36.83,29.18C36.83,30.42,35.54,31.44,34,31.44Z"/><path class="cls-8" d="M112.32,73.39V7.82S105.17,33.14,112.32,73.39Z"/><path class="cls-4" d="M23.54,53.79A1.39,1.39,0,0,1,25.06,55V67.25a1.38,1.38,0,0,1-1.52,1.2h0A1.39,1.39,0,0,1,22,67.25V55a1.39,1.39,0,0,1,1.51-1.2Z"/><path class="cls-4" d="M29.16,49.76A1.38,1.38,0,0,1,30.67,51V67.25a1.38,1.38,0,0,1-1.51,1.2h0a1.38,1.38,0,0,1-1.52-1.2V51a1.38,1.38,0,0,1,1.52-1.2Z"/><path class="cls-4" d="M34.77,45.72a1.37,1.37,0,0,1,1.51,1.2V67.25a1.37,1.37,0,0,1-1.51,1.2h0a1.38,1.38,0,0,1-1.52-1.2V46.92a1.38,1.38,0,0,1,1.52-1.2Z"/><path class="cls-4" d="M61.3,20.51a1.38,1.38,0,0,1,1.51,1.2V67.25a1.38,1.38,0,0,1-1.51,1.2h0a1.38,1.38,0,0,1-1.52-1.2V21.71a1.38,1.38,0,0,1,1.52-1.2Z"/><path class="cls-4" d="M53.13,32.22a1.39,1.39,0,0,1,1.52,1.2V67.25a1.38,1.38,0,0,1-1.52,1.2h0a1.38,1.38,0,0,1-1.51-1.2V33.42a1.39,1.39,0,0,1,1.51-1.2Z"/><path class="cls-4" d="M73,13.65a1.37,1.37,0,0,1,1.51,1.19V67.25A1.37,1.37,0,0,1,73,68.45h0a1.39,1.39,0,0,1-1.52-1.2V14.84A1.39,1.39,0,0,1,73,13.65Z"/><path class="cls-4" d="M80.68,13.65a1.38,1.38,0,0,1,1.52,1.19V67.25a1.38,1.38,0,0,1-1.52,1.2h0a1.38,1.38,0,0,1-1.51-1.2V14.84a1.38,1.38,0,0,1,1.51-1.19Z"/><path class="cls-4" d="M88.84,13.65a1.38,1.38,0,0,1,1.52,1.19V67.25a1.38,1.38,0,0,1-1.52,1.2h0a1.38,1.38,0,0,1-1.51-1.2V14.84a1.38,1.38,0,0,1,1.51-1.19Z"/><path class="cls-4" d="M96.5,13.65A1.38,1.38,0,0,1,98,14.84V67.25a1.38,1.38,0,0,1-1.51,1.2h0A1.37,1.37,0,0,1,95,67.25V14.84a1.37,1.37,0,0,1,1.51-1.19Z"/><path class="cls-9" d="M124.81,73.42a13.33,13.33,0,0,1-13.29,13.29H14.62A13.33,13.33,0,0,1,1.33,73.42V49a13.34,13.34,0,0,1,13.29-13.3H42c7.31,0,17.52-3.16,22.67-7s15.36-7,22.67-7h24.22a13.33,13.33,0,0,1,13.29,13.29Z"/><path class="cls-3" d="M111.52,23.85H87.3c-7.31,0-17.51,3.17-22.67,7s-15.36,7-22.67,7H14.62A13.33,13.33,0,0,0,1.33,51.21v2.35a13.34,13.34,0,0,1,13.29-13.3H42c7.31,0,17.52-3.16,22.67-7s15.36-7,22.67-7h24.22a13.33,13.33,0,0,1,13.29,13.29V37.14A13.33,13.33,0,0,0,111.52,23.85Z"/><path class="cls-10" d="M14.62,86.71h96.9a13.33,13.33,0,0,0,13.29-13.29V49.05q-6.14-.28-12.42-.29C68.18,48.76,28.54,59.3,1.58,76A13.34,13.34,0,0,0,14.62,86.71Z"/></g></g></svg>