<svg xmlns="http://www.w3.org/2000/svg" viewBox="0 0 48 48"><defs><style>.cls-1{fill:#c6c3d8;}.cls-2{fill:#dad7e5;}.cls-3{fill:#fc6;}.cls-4{fill:#ffde76;}.cls-5{fill:#edebf2;}.cls-6{fill:#919191;}</style></defs><title>File and folder</title><g id="File_and_folder" data-name="File and folder"><polygon class="cls-1" points="42 1 42 21 36 21 36 7 12 7 12 1 42 1"/><path class="cls-2" d="M42,1V19H33A18,18,0,0,1,15,1H42Z"/><path class="cls-3" d="M47,23V45a2,2,0,0,1-2,2H3a2,2,0,0,1-2-2V17a2,2,0,0,1,2-2H15.93a2,2,0,0,1,1.66.89L21,21H45A2,2,0,0,1,47,23Z"/><path class="cls-4" d="M47,23V45H34A30.09,30.09,0,0,1,4,15H15.93a2,2,0,0,1,1.66.89L21,21H45A2,2,0,0,1,47,23Z"/><path class="cls-2" d="M36,7V21H21l-3.41-5.11A2,2,0,0,0,15.93,15H6V7Z"/><path class="cls-5" d="M36,7V19H23l-3.41-5.11A2,2,0,0,0,17.93,13H15A6,6,0,0,1,9,7H36Z"/><path class="cls-6" d="M31,13H23a1,1,0,0,1,0-2h8a1,1,0,0,1,0,2Z"/><path class="cls-6" d="M31,17H23a1,1,0,0,1,0-2h8a1,1,0,0,1,0,2Z"/></g></svg>