<svg xmlns="http://www.w3.org/2000/svg" xmlns:xlink="http://www.w3.org/1999/xlink" viewBox="0 0 111.33 111.72"><defs><style>.cls-1{fill:#78231e;}.cls-2{fill:#a83030;}.cls-3{fill:url(#linear-gradient);}.cls-4{fill:#b3b2aa;}.cls-5{fill:url(#linear-gradient-2);}.cls-6{fill:url(#linear-gradient-3);}</style><linearGradient id="linear-gradient" x1="-945.44" y1="112.08" x2="-940.27" y2="-55.5" gradientTransform="translate(552.94 50.93) scale(0.53)" gradientUnits="userSpaceOnUse"><stop offset="0" stop-color="#cccdc3"/><stop offset="0.24" stop-color="#d0d1c8"/><stop offset="0.52" stop-color="#dcddd6"/><stop offset="0.82" stop-color="#f0f0ed"/><stop offset="1" stop-color="#fff"/></linearGradient><linearGradient id="linear-gradient-2" x1="-961.13" y1="78.46" x2="-921.14" y2="78.46" gradientTransform="translate(552.51 50.94) scale(0.53)" gradientUnits="userSpaceOnUse"><stop offset="0" stop-color="#b1874d"/><stop offset="0.97" stop-color="#e1c190"/></linearGradient><linearGradient id="linear-gradient-3" x1="233.48" y1="42.02" x2="241.06" y2="42.02" gradientTransform="translate(-156.03 76.23) scale(0.92 0.49)" gradientUnits="userSpaceOnUse"><stop offset="0" stop-color="#b1874d"/><stop offset="0.97" stop-color="#6a5c44"/></linearGradient></defs><g id="Layer_2" data-name="Layer 2"><g id="Layer_1-2" data-name="Layer 1"><rect class="cls-1" x="23.38" y="7.33" width="9.82" height="39.36"/><rect class="cls-1" x="19.98" y="3.21" width="16.62" height="8.01" rx="3.01"/><path class="cls-2" d="M33.59,3.94H23a3,3,0,0,0-3,3V8.43a3,3,0,0,1,3-3h10.6a3,3,0,0,1,3,3V7A3,3,0,0,0,33.59,3.94Z"/><path class="cls-3" d="M94.73,58.84l-30.5-30.5a11.78,11.78,0,0,0-16.61,0l-31,31A14.32,14.32,0,0,1,15,60.72V104c0,4.29,18.32,7.77,40.91,7.77s40.92-3.48,40.92-7.77V60.58A15.45,15.45,0,0,1,94.73,58.84Z"/><path class="cls-1" d="M107.19,46.39,96.84,36,66.36,5.55,64.23,3.43a11.78,11.78,0,0,0-16.61,0L45.5,5.55,15,36,4.14,46.9C-.43,51.47-1.36,58,2.07,61.44c3,3,8.54,2.62,12.94-.72a14.32,14.32,0,0,0,1.59-1.36l31-31a11.78,11.78,0,0,1,16.61,0l30.5,30.5a15.45,15.45,0,0,0,2.11,1.74c4.3,3,9.5,3.27,12.43.34C112.69,57.49,111.76,51,107.19,46.39Z"/><path class="cls-2" d="M16.64,39.71,45.9,10.45l2-2a11.3,11.3,0,0,1,16,0l2,2L95.19,39.71l9.94,9.94a13.54,13.54,0,0,1,3.8,6.92c.69-3.29-.66-7.4-3.8-10.54l-9.94-9.94L65.93,6.83l-2-2a11.3,11.3,0,0,0-16,0l-2,2L16.64,36.09,6.2,46.53c-3.14,3.14-4.49,7.25-3.8,10.54a13.5,13.5,0,0,1,3.8-6.92Z"/><path class="cls-4" d="M56.44,69.86C49,69.86,43,77,43,85.91v25.41c1,.06,1.94.12,2.93.16V85.91c0-7.23,4.73-13.12,10.54-13.12S67,78.68,67,85.91v25.52q1.5-.08,2.94-.18V85.91C69.9,77,63.87,69.86,56.44,69.86Z"/><path class="cls-5" d="M67,111.43V85.91c0-7.23-4.72-13.12-10.52-13.12S45.9,78.68,45.9,85.91v25.57c3.21.16,6.57.24,10,.24C59.75,111.72,63.45,111.62,67,111.43Z"/><path class="cls-6" d="M59.45,96.83c0,.68,1.57,1.23,3.51,1.23s3.5-.55,3.5-1.23S64.89,95.6,63,95.6,59.45,96.15,59.45,96.83Z"/><path class="cls-4" d="M15,100.18V104c0,3.43,11.71,6.34,28,7.37v-3.77C26.72,106.52,15,103.61,15,100.18Z"/><path class="cls-4" d="M69.9,107.48v3.77c15.72-1.08,26.94-3.94,26.94-7.3v-3.77C96.84,103.54,85.62,106.4,69.9,107.48Z"/><path class="cls-4" d="M94.73,58.84l-30.5-30.5a11.78,11.78,0,0,0-16.61,0l-31,31A14.32,14.32,0,0,1,15,60.72v3.77a15.48,15.48,0,0,0,1.59-1.36l31-31a11.78,11.78,0,0,1,16.61,0l30.5,30.5a14.67,14.67,0,0,0,2.11,1.73V60.58A15.45,15.45,0,0,1,94.73,58.84Z"/><path class="cls-4" d="M55.14,40.1h-3a6,6,0,0,0-6,6v3.48h9Z"/><path class="cls-4" d="M46.19,54V57.5a6,6,0,0,0,6,6h3V54Z"/><path class="cls-4" d="M59.61,63.47h3a6,6,0,0,0,6-6V54h-9Z"/><path class="cls-4" d="M68.56,49.55V46.07a6,6,0,0,0-6-6h-3v9.45Z"/></g></g></svg>