<svg xmlns="http://www.w3.org/2000/svg" xmlns:xlink="http://www.w3.org/1999/xlink" viewBox="0 0 88.59 109.35"><defs><style>.cls-1{fill:#bdb9c1;}.cls-2{fill:url(#linear-gradient);}.cls-3{fill:url(#linear-gradient-2);}.cls-4{fill:url(#radial-gradient);}.cls-5{fill:url(#linear-gradient-3);}</style><linearGradient id="linear-gradient" x1="246.17" y1="-593.74" x2="246.17" y2="-494.61" gradientTransform="translate(-219.24 639.63) scale(1.07)" gradientUnits="userSpaceOnUse"><stop offset="0" stop-color="#fff"/><stop offset="0.48" stop-color="#fdfdfd"/><stop offset="0.71" stop-color="#f5f6f6"/><stop offset="0.89" stop-color="#e9e9ea"/><stop offset="1" stop-color="#dbdcdd"/></linearGradient><linearGradient id="linear-gradient-2" x1="-40.7" y1="270.66" x2="-32" y2="261.96" gradientTransform="translate(24.95 310.28) rotate(180) scale(1.07)" gradientUnits="userSpaceOnUse"><stop offset="0" stop-color="#fff"/><stop offset="0.35" stop-color="#f2f3f3"/><stop offset="1" stop-color="#d0d2d3"/><stop offset="1" stop-color="#d0d2d3"/></linearGradient><radialGradient id="radial-gradient" cx="212.71" cy="-599.07" r="11.37" gradientTransform="translate(-250.49 917.47) scale(1.5)" gradientUnits="userSpaceOnUse"><stop offset="0" stop-color="#fff"/><stop offset="0.49" stop-color="#fdfdfd"/><stop offset="0.66" stop-color="#f6f7f7"/><stop offset="0.79" stop-color="#ebebec"/><stop offset="0.89" stop-color="#dadbdc"/><stop offset="0.97" stop-color="#c4c6c7"/><stop offset="1" stop-color="#bbbdbf"/></radialGradient><linearGradient id="linear-gradient-3" x1="226.34" y1="-475.05" x2="268.55" y2="-517.26" gradientTransform="translate(-219.24 639.63) scale(1.07)" gradientUnits="userSpaceOnUse"><stop offset="0" stop-color="#d0d2d3"/><stop offset="0.47" stop-color="#fff"/><stop offset="0.66" stop-color="#f2f3f3"/><stop offset="1" stop-color="#d0d2d3"/><stop offset="1" stop-color="#d0d2d3"/></linearGradient></defs><g id="Layer_2" data-name="Layer 2"><g id="Layer_1-2" data-name="Layer 1"><path class="cls-1" d="M2.93,0A2.94,2.94,0,0,0,0,2.93V106.42a2.94,2.94,0,0,0,2.93,2.93H85.65a3,3,0,0,0,2.94-2.93V35.5a8.21,8.21,0,0,0-2.07-5L58.1,2.07a8.2,8.2,0,0,0-5-2.07Z"/><path class="cls-2" d="M5.38,2A2.93,2.93,0,0,0,2.45,4.89V105.45a2.94,2.94,0,0,0,2.93,2.93h79.3a3,3,0,0,0,2.93-2.93V36a8.17,8.17,0,0,0-2.07-5L58.59,4a8.2,8.2,0,0,0-5-2.07Z"/><path class="cls-3" d="M58.08,9.75V24.41A5.6,5.6,0,0,0,63.67,30H78.92Z"/><path class="cls-4" d="M56.93,27.84,55.58,3.71h0L53.51,31.27a2.93,2.93,0,0,0,2.93,2.93h26.7L59.86,30.78A3,3,0,0,1,56.93,27.84Z"/><path class="cls-5" d="M2.45,108.38H87.61S54.72,101,2.45,108.38Z"/><path class="cls-1" d="M27.9,17.12a1.55,1.55,0,0,1-1.56,1.55H10.42a1.55,1.55,0,0,1-1.56-1.55h0a1.56,1.56,0,0,1,1.56-1.56H26.34a1.56,1.56,0,0,1,1.56,1.56Z"/><path class="cls-1" d="M33.14,22.89a1.55,1.55,0,0,1-1.55,1.56H10.42a1.56,1.56,0,0,1-1.56-1.56h0a1.56,1.56,0,0,1,1.56-1.56H31.59a1.55,1.55,0,0,1,1.55,1.56Z"/><path class="cls-1" d="M38.39,28.66a1.55,1.55,0,0,1-1.56,1.55H10.42a1.55,1.55,0,0,1-1.56-1.55h0a1.56,1.56,0,0,1,1.56-1.56H36.83a1.56,1.56,0,0,1,1.56,1.56Z"/><path class="cls-1" d="M71.12,55.93a1.54,1.54,0,0,1-1.55,1.55H10.42a1.55,1.55,0,0,1-1.56-1.55h0a1.56,1.56,0,0,1,1.56-1.56H69.57a1.55,1.55,0,0,1,1.55,1.56Z"/><path class="cls-1" d="M55.91,47.54a1.55,1.55,0,0,1-1.55,1.55H10.42a1.56,1.56,0,0,1-1.56-1.55h0A1.56,1.56,0,0,1,10.42,46H54.36a1.55,1.55,0,0,1,1.55,1.56Z"/><path class="cls-1" d="M80,68a1.56,1.56,0,0,1-1.56,1.56H10.42A1.56,1.56,0,0,1,8.86,68h0a1.56,1.56,0,0,1,1.56-1.56H78.48A1.56,1.56,0,0,1,80,68Z"/><path class="cls-1" d="M80,75.86a1.55,1.55,0,0,1-1.56,1.55H10.42a1.55,1.55,0,0,1-1.56-1.55h0a1.56,1.56,0,0,1,1.56-1.56H78.48A1.56,1.56,0,0,1,80,75.86Z"/><path class="cls-1" d="M80,84.25a1.55,1.55,0,0,1-1.56,1.55H10.42a1.55,1.55,0,0,1-1.56-1.55h0a1.56,1.56,0,0,1,1.56-1.56H78.48A1.56,1.56,0,0,1,80,84.25Z"/><path class="cls-1" d="M80,92.11a1.56,1.56,0,0,1-1.56,1.56H10.42a1.56,1.56,0,0,1-1.56-1.56h0a1.55,1.55,0,0,1,1.56-1.55H78.48A1.55,1.55,0,0,1,80,92.11Z"/></g></g></svg>